<svg width="60" height="60" viewBox="0 0 60 60" fill="none" xmlns="http://www.w3.org/2000/svg">
<rect width="60" height="60" fill="black"/>
<g clip-path="url(#clip0_150_670)">
<path d="M30 10.7999C22 10.7999 15.44 17.3599 15.44 25.36C15.44 33.36 22 39.92 30 39.92C38 39.92 44.56 33.36 44.56 25.36C44.56 17.3599 38 10.7999 30 10.7999ZM30 35.44C24.4 35.44 19.92 30.96 19.92 25.36C19.92 19.76 24.4 15.28 30 15.28C35.6 15.28 40.08 19.76 40.08 25.36C39.92 30.96 35.44 35.44 30 35.44ZM42.96 38.6399L30 44.2399L17.04 38.6399L14.8 42.64L30 49.0399L45.2 42.64L42.96 38.6399Z" fill="white"/>
</g>
<defs>
<clipPath id="clip0_150_670">
<rect width="32" height="40" fill="white" transform="translate(14 10)"/>
</clipPath>
</defs>
</svg>
